<svg width="92" height="92" viewBox="0 0 92 92" fill="none" xmlns="http://www.w3.org/2000/svg">
<path d="M87.8177 0.551758H4.18232C2.17735 0.551758 0.552002 2.17711 0.552002 4.18208V87.8175C0.552002 89.8224 2.17735 91.4478 4.18232 91.4478H87.8177C89.8227 91.4478 91.448 89.8224 91.448 87.8175V4.18208C91.448 2.17711 89.8227 0.551758 87.8177 0.551758Z" fill="#5C068C"/>
<path d="M18.1119 37.1967V40.5547H25.54V43.6468H18.1119V49.6737H14.6868V34.1055H26.5401V37.1967H18.1119Z" fill="white"/>
<path d="M41.7081 48.3168C41.2719 48.6618 40.7981 48.9565 40.2959 49.1954C39.7608 49.4469 39.1969 49.6323 38.6169 49.7474C37.9431 49.8799 37.2575 49.9434 36.5709 49.937C35.4795 49.9469 34.3974 49.735 33.3904 49.3141C32.4418 48.919 31.5802 48.341 30.8549 47.613C30.136 46.8828 29.5691 46.0173 29.1869 45.0665C28.7832 44.0705 28.5791 43.0049 28.5862 41.9302V41.886C28.5781 40.8139 28.7822 39.7508 29.1869 38.758C29.5741 37.8069 30.1403 36.9389 30.8549 36.2013C31.5819 35.4567 32.4518 34.8665 33.4125 34.4662C34.457 34.0357 35.5783 33.8222 36.7079 33.8388C37.3754 33.8338 38.0418 33.8932 38.6979 34.0163C39.258 34.1236 39.8058 34.2876 40.3327 34.5058C40.8112 34.7078 41.2662 34.9614 41.6897 35.262C42.1014 35.5561 42.4882 35.8835 42.8462 36.2409L40.6639 38.7534C40.1067 38.2411 39.4817 37.8077 38.8065 37.4654C38.1441 37.1473 37.4169 36.9876 36.6822 36.999C36.0579 36.9932 35.4397 37.1222 34.8698 37.3771C34.324 37.6216 33.8354 37.9776 33.4355 38.4222C33.0305 38.8747 32.7138 39.3989 32.5017 39.9678C32.2763 40.5686 32.1631 41.2057 32.1677 41.8474V41.8916C32.1638 42.5368 32.277 43.1773 32.5017 43.7822C32.7106 44.3529 33.0224 44.8806 33.4217 45.3388C33.829 45.7996 34.3308 46.1672 34.893 46.4166C35.4552 46.666 36.0645 46.7914 36.6794 46.7841C37.5694 46.7841 38.3219 46.621 38.9371 46.2947C39.604 45.9317 40.2207 45.4833 40.7716 44.9607L42.9511 47.1622C42.5666 47.578 42.1511 47.964 41.7081 48.3168Z" fill="white"/>
<path d="M57.8762 49.6737V39.5095L53.4942 46.1593H53.4022L49.0654 39.5767V49.6737H45.689V34.1055H49.38L53.4722 40.689L57.5643 34.1055H61.2563V49.6737H57.8762Z" fill="white"/>
<path d="M77.7924 47.2716C77.517 47.8071 77.1126 48.2655 76.6157 48.6056C76.0564 48.9827 75.4328 49.2543 74.7757 49.4069C73.9921 49.5923 73.1889 49.6819 72.3837 49.6737H64.9924V34.1055H72.208C73.8057 34.1055 75.0597 34.4689 75.9699 35.1957C76.88 35.9225 77.3354 36.901 77.3361 38.1314V38.1801C77.3424 38.5793 77.2862 38.9769 77.1695 39.3587C77.0659 39.6844 76.9172 39.994 76.7279 40.2787C76.5478 40.5484 76.331 40.7917 76.0839 41.0018C75.8432 41.2081 75.5803 41.3871 75.3001 41.5354C76.1999 41.877 76.9083 42.3404 77.4253 42.9255C77.9423 43.5106 78.2006 44.3208 78.1999 45.3561V45.4003C78.2157 46.0477 78.076 46.6894 77.7924 47.2716ZM73.9551 38.7091C73.9551 38.1903 73.7625 37.7937 73.3773 37.5196C72.9921 37.2454 72.4361 37.1083 71.7093 37.1083H68.3283V40.3992H71.4839C72.2402 40.3992 72.8406 40.2695 73.2853 40.01C73.73 39.7506 73.9523 39.3317 73.9523 38.7533L73.9551 38.7091ZM74.8226 44.9366C74.8307 44.6972 74.7801 44.4594 74.6755 44.2439C74.5708 44.0285 74.4151 43.8418 74.2219 43.6001C73.8214 43.3965 73.1774 43.2432 72.2899 43.2401H68.3339V46.6653H72.4039C73.1602 46.6653 73.7533 46.5282 74.1832 46.2541C74.6132 45.9799 74.8278 45.5536 74.8272 44.9753L74.8226 44.9366Z" fill="white"/>
<path d="M77.9442 59.6494V67.2725H14.3464V63.2632C14.3463 62.7886 14.4397 62.3186 14.6213 61.8801C14.8028 61.4416 15.069 61.0432 15.4046 60.7076C15.7402 60.372 16.1386 60.1058 16.5771 59.9243C17.0156 59.7427 17.4856 59.6493 17.9602 59.6494H77.9442Z" fill="#FAB613"/>
<path d="M14.3464 69.7402H77.9442V77.3634H17.9602C17.4855 77.3635 17.0155 77.2701 16.5769 77.0884C16.1384 76.9068 15.7399 76.6406 15.4043 76.3049C15.0687 75.9692 14.8025 75.5706 14.621 75.132C14.4395 74.6934 14.3462 74.2234 14.3464 73.7487V69.7402Z" fill="#FAB613"/>
</svg>
